%
M48
M72
T01C0.01575
T02C0.01969
T03C0.03500
T04C0.03600
T05C0.03937
T06C0.11600
T07C0.11811
%
T01
X273500Y134500
X273500Y139160
X278500Y139160
X278500Y134500
X283500Y134500
X283500Y139160
X288500Y139160
X288500Y134500
X293500Y134500
X293500Y139160
X293500Y143830
X293500Y148500
X288500Y148500
X288500Y143830
X283500Y143830
X283500Y148500
X278500Y148500
X278500Y143830
X273500Y143830
X273500Y148500
X298500Y148500
X298500Y143830
X303500Y143830
X303500Y148500
X308500Y148500
X308500Y143830
X308500Y139160
X308500Y134500
X303500Y134500
X303500Y139160
X298500Y139160
X298500Y134500
T02
X98500Y196500
X94500Y188500
X122500Y191500
X127500Y181500
X149500Y169500
X189500Y196500
X207500Y191500
X216500Y188500
X212500Y181500
X228500Y173500
X231500Y181500
X236500Y185500
X265500Y156500
X283500Y173500
X277500Y176500
X321500Y169500
X331500Y211500
X296500Y246500
X199500Y282500
X197500Y169500
X221500Y112500
X221500Y96500
X176500Y96500
X141500Y96500
X129500Y96500
X186500Y55500
X202500Y55500
X275500Y112500
X281500Y112500
X287500Y112500
X293500Y112500
X300500Y112500
X306500Y112500
X312500Y112500
X318500Y112500
X328500Y111500
X328500Y96500
X294500Y95500
X58500Y94500
X41500Y111500
T03
X106500Y36500
X106500Y46500
X116500Y46500
X126500Y46500
X126500Y36500
X116500Y36500
X136500Y36500
X146500Y36500
X146500Y46500
X136500Y46500
X156500Y46500
X166500Y46500
X166500Y36500
X156500Y36500
X176500Y36500
X186500Y36500
X186500Y46500
X176500Y46500
X196500Y46500
X206500Y46500
X206500Y36500
X196500Y36500
X216500Y36500
X226500Y36500
X226500Y46500
X216500Y46500
X236500Y46500
X246500Y46500
X246500Y36500
X236500Y36500
X256500Y36500
X266500Y36500
X266500Y46500
X256500Y46500
X276500Y46500
X286500Y46500
X286500Y36500
X276500Y36500
X296500Y36500
X296500Y46500
T04
X31500Y206500
X41500Y206500
X41500Y196500
X41500Y186500
X41500Y176500
X31500Y176500
X31500Y186500
X31500Y196500
X31500Y166500
X41500Y166500
X356500Y166500
X366500Y166500
X366500Y176500
X366500Y186500
X366500Y196500
X356500Y196500
X356500Y186500
X356500Y176500
X356500Y206500
X366500Y206500
T05
X81500Y239295
X62602Y251500
X81500Y263311
T06
X71300Y40500
X331700Y40500
T07
X26500Y271500
X26500Y26500
X371500Y26500
X371500Y271500
M30
